<?xml version="1.0" encoding="utf-8"?>
<!-- Generator: Adobe Illustrator 19.1.0, SVG Export Plug-In . SVG Version: 6.00 Build 0)  -->
<svg version="1.1" id="Layer_1" xmlns="http://www.w3.org/2000/svg" xmlns:xlink="http://www.w3.org/1999/xlink" x="0px" y="0px"
	 viewBox="-7.1 0 200 55" style="enable-background:new -7.1 0 200 55;" xml:space="preserve">
<style type="text/css">
	.st0{fill:#7CA744;}
	.st1{fill:#51555E;}
	.st2{enable-background:new    ;}
</style>
<g>
	<g>
		<path class="st0" d="M32,37.8c-0.4,1-1.3,1.8-2.5,1.8H16.4c1.5-2.6,3.1-6.1,3.9-9.5c0.6,1.7,1.9,3.2,3.2,4.3
			C25.3,35.8,28.1,37.1,32,37.8L32,37.8z"/>
		<path class="st0" d="M15.5,16.3h14c1.5,0,2.6,1.2,2.6,2.6v14c-2.4-0.4-9.2-1.9-9.2-5.4c0-3,4.3-4.1,6.6-4.3l-1.5-1
			c0,0-5.4,0.4-7.4,3.8C20.6,22.5,19.2,19,15.5,16.3L15.5,16.3z"/>
		<path class="st1" d="M11.5,16.3h2.2c3.5,3,9.5,11.1-5,20.2l0,0V18.9C8.9,17.5,10.1,16.3,11.5,16.3L11.5,16.3z"/>
	</g>
</g>
<g class="st2">
	<path class="st1" d="M43.5,27.6h0.9c0.1,0,0.2,0,0.3,0c0.1,0,0.2,0,0.3-0.1c0.1,0,0.2-0.1,0.2-0.1c0.1,0,0.1-0.1,0.2-0.2l5.8-6
		c0.1-0.1,0.2-0.2,0.3-0.2s0.2-0.1,0.3-0.1h0.8l-6.3,6.4c-0.1,0.1-0.2,0.2-0.3,0.3s-0.2,0.1-0.3,0.2c0.1,0,0.3,0.1,0.4,0.2
		c0.1,0.1,0.2,0.2,0.3,0.3l6.6,6.9h-0.8c-0.2,0-0.3,0-0.4-0.1c-0.1-0.1-0.2-0.1-0.2-0.2l-6.1-6.2c-0.1-0.1-0.1-0.1-0.2-0.2
		c-0.1-0.1-0.1-0.1-0.2-0.1c-0.1,0-0.2-0.1-0.3-0.1c-0.1,0-0.2,0-0.4,0h-0.9v6.9h-1V21h1V27.6z"/>
	<path class="st1" d="M55.8,25.2v6.5c0,0.9,0.2,1.7,0.7,2.2s1.1,0.8,2,0.8c0.7,0,1.3-0.2,1.8-0.5s1.1-0.8,1.5-1.4v-7.6h1v10.1h-0.5
		c-0.2,0-0.3-0.1-0.3-0.3l-0.1-1.5c-0.5,0.6-1,1-1.6,1.4s-1.3,0.5-2,0.5c-0.6,0-1.1-0.1-1.5-0.3c-0.4-0.2-0.8-0.4-1-0.8
		c-0.3-0.3-0.5-0.7-0.6-1.2c-0.1-0.5-0.2-1-0.2-1.6v-6.5H55.8z"/>
	<path class="st1" d="M72.5,35.3c-0.2,0-0.3-0.1-0.4-0.3L72,33.8c-0.3,0.3-0.6,0.5-0.8,0.7c-0.3,0.2-0.6,0.4-0.9,0.5
		c-0.3,0.1-0.6,0.3-1,0.3c-0.3,0.1-0.7,0.1-1.1,0.1c-0.3,0-0.7-0.1-1-0.2c-0.3-0.1-0.6-0.3-0.9-0.5c-0.3-0.2-0.5-0.5-0.6-0.8
		s-0.2-0.7-0.2-1.2c0-0.4,0.1-0.8,0.4-1.2c0.2-0.4,0.6-0.7,1.1-1c0.5-0.3,1.2-0.5,2-0.6c0.8-0.2,1.8-0.3,2.9-0.3v-1.1
		c0-0.9-0.2-1.7-0.6-2.2s-1-0.8-1.8-0.8c-0.5,0-0.9,0.1-1.2,0.2c-0.3,0.1-0.6,0.3-0.9,0.4s-0.4,0.3-0.6,0.4
		c-0.1,0.1-0.3,0.2-0.4,0.2c-0.1,0-0.2-0.1-0.3-0.2L66,26.7c0.5-0.5,1.1-0.9,1.7-1.2c0.6-0.3,1.2-0.4,2-0.4c0.5,0,1,0.1,1.4,0.3
		c0.4,0.2,0.7,0.4,1,0.7c0.3,0.3,0.5,0.7,0.6,1.2c0.1,0.5,0.2,1,0.2,1.5v6.6H72.5z M68.4,34.8c0.4,0,0.8,0,1.1-0.1
		c0.3-0.1,0.6-0.2,0.9-0.4s0.5-0.3,0.8-0.5s0.5-0.4,0.7-0.7v-2.6c-1,0-1.8,0.1-2.5,0.2s-1.3,0.3-1.7,0.5c-0.5,0.2-0.8,0.4-1,0.7
		c-0.2,0.3-0.3,0.6-0.3,1c0,0.3,0.1,0.6,0.2,0.9c0.1,0.2,0.3,0.5,0.4,0.6c0.2,0.2,0.4,0.3,0.6,0.4S68.2,34.8,68.4,34.8z"/>
	<path class="st1" d="M77.2,20.6v14.8h-1V20.6H77.2z"/>
	<path class="st1" d="M82.4,21.8c0,0.1,0,0.2-0.1,0.3c-0.1,0.1-0.1,0.2-0.2,0.3c-0.1,0.1-0.2,0.1-0.3,0.2c-0.1,0-0.2,0.1-0.3,0.1
		c-0.1,0-0.2,0-0.3-0.1c-0.1,0-0.2-0.1-0.3-0.2c-0.1-0.1-0.1-0.2-0.2-0.3c0-0.1-0.1-0.2-0.1-0.3c0-0.1,0-0.2,0.1-0.3
		c0-0.1,0.1-0.2,0.2-0.3C81,21,81,21,81.2,20.9c0.1,0,0.2-0.1,0.3-0.1c0.1,0,0.2,0,0.3,0.1c0.1,0,0.2,0.1,0.3,0.2
		c0.1,0.1,0.1,0.2,0.2,0.3C82.4,21.5,82.4,21.6,82.4,21.8z M82,25.2v10.1h-1V25.2H82z"/>
</g>
<g class="st2">
	<path class="st1" d="M94,23.5c-0.1,0.1-0.2,0.3-0.3,0.3c-0.1,0.1-0.2,0.1-0.4,0.1c-0.1,0-0.3-0.1-0.5-0.2c-0.2-0.1-0.4-0.2-0.6-0.3
		c-0.2-0.1-0.5-0.2-0.8-0.4c-0.3-0.1-0.7-0.2-1.1-0.2c-0.4,0-0.7,0-1,0.1c-0.3,0.1-0.5,0.2-0.7,0.4s-0.3,0.4-0.4,0.6
		s-0.1,0.5-0.1,0.7c0,0.3,0.1,0.6,0.3,0.9c0.2,0.2,0.4,0.4,0.8,0.6c0.3,0.2,0.7,0.3,1.1,0.4c0.4,0.1,0.8,0.3,1.2,0.4
		c0.4,0.1,0.8,0.3,1.2,0.5c0.4,0.2,0.8,0.4,1.1,0.7c0.3,0.3,0.6,0.7,0.8,1.1c0.2,0.4,0.3,0.9,0.3,1.6c0,0.7-0.1,1.3-0.3,1.9
		c-0.2,0.6-0.6,1.1-1,1.5c-0.4,0.4-1,0.8-1.6,1c-0.6,0.2-1.4,0.4-2.2,0.4c-0.5,0-0.9,0-1.4-0.1c-0.5-0.1-0.9-0.2-1.3-0.4
		c-0.4-0.2-0.8-0.4-1.2-0.6c-0.4-0.2-0.7-0.5-1-0.8l0.8-1.3c0.1-0.1,0.2-0.2,0.3-0.2s0.2-0.1,0.4-0.1c0.2,0,0.4,0.1,0.5,0.2
		s0.4,0.3,0.7,0.5c0.3,0.2,0.6,0.3,0.9,0.5c0.4,0.1,0.8,0.2,1.3,0.2c0.8,0,1.4-0.2,1.8-0.6c0.4-0.4,0.6-0.9,0.6-1.6
		c0-0.4-0.1-0.7-0.3-0.9c-0.2-0.2-0.4-0.4-0.8-0.6c-0.3-0.2-0.7-0.3-1.1-0.4c-0.4-0.1-0.8-0.2-1.2-0.4c-0.4-0.1-0.8-0.3-1.2-0.5
		c-0.4-0.2-0.8-0.4-1.1-0.7c-0.3-0.3-0.6-0.7-0.8-1.1s-0.3-1-0.3-1.7c0-0.5,0.1-1.1,0.3-1.6c0.2-0.5,0.5-1,0.9-1.4
		c0.4-0.4,0.9-0.7,1.5-0.9c0.6-0.2,1.3-0.4,2-0.4c0.9,0,1.7,0.1,2.4,0.4c0.7,0.3,1.4,0.7,1.9,1.1L94,23.5z"/>
	<path class="st1" d="M100.4,35.7c-0.9,0-1.6-0.3-2.1-0.8c-0.5-0.5-0.7-1.2-0.7-2.1V27h-1.1c-0.1,0-0.3,0-0.4-0.1
		C96,26.8,96,26.7,96,26.5v-1l1.7-0.3l0.5-2.8c0-0.1,0.1-0.2,0.2-0.3c0.1-0.1,0.2-0.1,0.4-0.1h1.3v3.3h2.7V27H100v5.6
		c0,0.3,0.1,0.6,0.2,0.8s0.4,0.3,0.6,0.3c0.2,0,0.3,0,0.4-0.1c0.1,0,0.2-0.1,0.3-0.1c0.1,0,0.1-0.1,0.2-0.1c0.1,0,0.1-0.1,0.2-0.1
		c0.1,0,0.1,0,0.2,0.1c0,0,0.1,0.1,0.2,0.2l0.8,1.2c-0.4,0.3-0.8,0.5-1.3,0.7C101.4,35.6,100.9,35.7,100.4,35.7z"/>
	<path class="st1" d="M107.1,25.1v6.6c0,0.6,0.1,1.1,0.4,1.5c0.3,0.3,0.7,0.5,1.3,0.5c0.4,0,0.8-0.1,1.2-0.3
		c0.4-0.2,0.7-0.5,1.1-0.8v-7.5h2.5v10.4h-1.5c-0.3,0-0.5-0.2-0.6-0.5l-0.2-0.8c-0.2,0.2-0.4,0.4-0.7,0.6c-0.2,0.2-0.5,0.3-0.7,0.5
		c-0.3,0.1-0.5,0.2-0.8,0.3s-0.6,0.1-1,0.1c-0.6,0-1.1-0.1-1.5-0.3c-0.4-0.2-0.8-0.5-1.1-0.8c-0.3-0.4-0.5-0.8-0.7-1.3
		c-0.2-0.5-0.2-1-0.2-1.6v-6.6H107.1z"/>
	<path class="st1" d="M123.7,35.5c-0.3,0-0.5-0.2-0.6-0.5l-0.2-1c-0.2,0.2-0.4,0.5-0.7,0.7c-0.2,0.2-0.5,0.4-0.8,0.5
		c-0.3,0.1-0.6,0.3-0.9,0.3c-0.3,0.1-0.7,0.1-1,0.1c-0.6,0-1.1-0.1-1.6-0.4c-0.5-0.2-0.9-0.6-1.2-1c-0.3-0.5-0.6-1-0.8-1.7
		c-0.2-0.7-0.3-1.4-0.3-2.3c0-0.8,0.1-1.5,0.3-2.2s0.5-1.2,0.9-1.7s0.9-0.9,1.4-1.1c0.5-0.3,1.2-0.4,1.8-0.4c0.6,0,1.1,0.1,1.5,0.3
		c0.4,0.2,0.8,0.4,1.1,0.7v-5.5h2.5v15.1H123.7z M120.3,33.7c0.5,0,1-0.1,1.3-0.3s0.7-0.5,1-0.9v-4.7c-0.3-0.3-0.6-0.6-0.9-0.7
		c-0.3-0.1-0.7-0.2-1.1-0.2c-0.4,0-0.7,0.1-1,0.2c-0.3,0.1-0.6,0.4-0.8,0.6c-0.2,0.3-0.4,0.7-0.5,1.1c-0.1,0.4-0.2,1-0.2,1.6
		c0,0.6,0,1.1,0.1,1.5c0.1,0.4,0.2,0.8,0.4,1s0.4,0.5,0.7,0.6C119.7,33.6,120,33.7,120.3,33.7z"/>
	<path class="st1" d="M132.2,25c0.7,0,1.3,0.1,1.8,0.3s1,0.5,1.4,0.9c0.4,0.4,0.7,0.9,0.9,1.5c0.2,0.6,0.3,1.3,0.3,2
		c0,0.2,0,0.3,0,0.5c0,0.1,0,0.2-0.1,0.3s-0.1,0.1-0.2,0.2c-0.1,0-0.2,0-0.3,0h-6.4c0.1,1.1,0.4,1.9,0.9,2.4s1.2,0.8,2,0.8
		c0.4,0,0.8,0,1.1-0.1c0.3-0.1,0.6-0.2,0.8-0.3c0.2-0.1,0.4-0.2,0.6-0.3c0.2-0.1,0.3-0.1,0.5-0.1c0.1,0,0.2,0,0.3,0.1
		c0.1,0,0.1,0.1,0.2,0.2l0.7,0.9c-0.3,0.3-0.6,0.6-0.9,0.8c-0.3,0.2-0.7,0.4-1.1,0.5c-0.4,0.1-0.8,0.2-1.1,0.3
		c-0.4,0.1-0.8,0.1-1.1,0.1c-0.7,0-1.4-0.1-2-0.4c-0.6-0.2-1.2-0.6-1.6-1.1c-0.5-0.5-0.8-1.1-1.1-1.7c-0.3-0.7-0.4-1.5-0.4-2.4
		c0-0.7,0.1-1.4,0.3-2s0.6-1.2,1-1.6c0.4-0.5,1-0.8,1.6-1.1S131.4,25,132.2,25z M132.3,26.8c-0.7,0-1.3,0.2-1.7,0.6
		c-0.4,0.4-0.7,1-0.8,1.8h4.7c0-0.3,0-0.6-0.1-0.9c-0.1-0.3-0.2-0.5-0.4-0.8c-0.2-0.2-0.4-0.4-0.7-0.5
		C133,26.8,132.6,26.8,132.3,26.8z"/>
	<path class="st1" d="M138.8,35.5V25.1h1.5c0.3,0,0.5,0.2,0.6,0.5l0.2,0.8c0.2-0.2,0.4-0.4,0.7-0.6c0.2-0.2,0.5-0.3,0.7-0.5
		s0.5-0.2,0.8-0.3c0.3-0.1,0.6-0.1,1-0.1c0.6,0,1.1,0.1,1.5,0.3c0.4,0.2,0.8,0.5,1.1,0.8c0.3,0.3,0.5,0.8,0.7,1.2
		c0.2,0.5,0.2,1,0.2,1.6v6.6h-2.5v-6.6c0-0.6-0.1-1.1-0.4-1.5c-0.3-0.3-0.7-0.5-1.3-0.5c-0.4,0-0.8,0.1-1.2,0.3s-0.7,0.5-1.1,0.8
		v7.5H138.8z"/>
	<path class="st1" d="M153.7,35.7c-0.9,0-1.6-0.3-2.1-0.8c-0.5-0.5-0.7-1.2-0.7-2.1V27h-1.1c-0.1,0-0.3,0-0.4-0.1
		c-0.1-0.1-0.1-0.2-0.1-0.4v-1l1.7-0.3l0.5-2.8c0-0.1,0.1-0.2,0.2-0.3c0.1-0.1,0.2-0.1,0.4-0.1h1.3v3.3h2.7V27h-2.7v5.6
		c0,0.3,0.1,0.6,0.2,0.8c0.2,0.2,0.4,0.3,0.6,0.3c0.2,0,0.3,0,0.4-0.1c0.1,0,0.2-0.1,0.3-0.1c0.1,0,0.1-0.1,0.2-0.1
		c0.1,0,0.1-0.1,0.2-0.1c0.1,0,0.1,0,0.2,0.1c0,0,0.1,0.1,0.2,0.2l0.8,1.2c-0.4,0.3-0.8,0.5-1.3,0.7
		C154.7,35.6,154.2,35.7,153.7,35.7z"/>
</g>
</svg>
