<?xml version="1.0" encoding="utf-8"?>
<!-- Generator: Adobe Illustrator 19.1.0, SVG Export Plug-In . SVG Version: 6.00 Build 0)  -->
<svg version="1.1" id="Layer_1" xmlns="http://www.w3.org/2000/svg" xmlns:xlink="http://www.w3.org/1999/xlink" x="0px" y="0px"
	 viewBox="7.5 7.5 30 30" style="enable-background:new 7.5 7.5 30 30;" xml:space="preserve">
<style type="text/css">
	.st0{fill:#50555E;}
	.st1{fill-rule:evenodd;clip-rule:evenodd;fill:#FFFFFF;}
</style>
<g>
	<path class="st0" d="M34.5,37.5h-24c-1.6,0-3-1.3-3-3v-24c0-1.6,1.3-3,3-3h24c1.6,0,3,1.3,3,3v24C37.5,36.2,36.2,37.5,34.5,37.5z"
		/>
	<path class="st1" d="M18.6,16.5v12h6.7c0.8,0,1.5-0.7,1.5-1.5v-9c0-0.8-0.7-1.5-1.5-1.5v3.8l-1.5-1.5l-1.5,1.5v-3.8H18.6z
		 M17.9,16.5c-0.8,0-1.5,0.7-1.5,1.5v9c0,0.8,0.7,1.5,1.5,1.5V16.5z M28.6,20.7v-2.3h-0.8v2.3H28.6z M28.6,23.8v-2.3h-0.8v2.3H28.6z
		 M28.6,26.8v-2.3h-0.8v2.3H28.6z"/>
</g>
</svg>
