<?xml version="1.0" encoding="utf-8"?>
<!-- Generator: Adobe Illustrator 19.1.0, SVG Export Plug-In . SVG Version: 6.00 Build 0)  -->
<svg version="1.1" id="Layer_1" xmlns="http://www.w3.org/2000/svg" xmlns:xlink="http://www.w3.org/1999/xlink" x="0px" y="0px"
	 viewBox="7.5 7.5 30 30" style="enable-background:new 7.5 7.5 30 30;" xml:space="preserve">
<style type="text/css">
	.st0{fill:#50555E;}
	.st1{fill-rule:evenodd;clip-rule:evenodd;fill:#FFFFFF;}
</style>
<g>
	<path class="st0" d="M34.5,37.5h-24c-1.6,0-3-1.3-3-3v-24c0-1.6,1.3-3,3-3h24c1.6,0,3,1.3,3,3v24C37.5,36.2,36.2,37.5,34.5,37.5z"
		/>
	<path class="st1" d="M30,23.3c-0.5-0.3-1.3-0.9-2.4-1.1c0.3-0.3,0.5-0.8,0.7-1.4c0.1-0.4,0.1-0.7,0.1-1.1c0-0.3,0.1-0.8,0-1.1
		c-0.2-0.9-0.9-1.2-1.6-1.2c-0.4,0-0.7,0.1-1,0.2c0.1,0.2,0.2,0.4,0.3,0.7c0.1,0.4,0,1.1,0,1.5c0,0.6,0,1-0.1,1.5l-0.2,0.6
		c0.1,0.1,0.1,0.2,0.2,0.3c-0.1,0-0.3,0.1-0.4,0.1c-0.2,0.4-0.3,0.7-0.5,0.9c1.5,0.3,2.5,1.1,3.2,1.5c0.4,0.2,0.6,0.4,0.8,0.5h1.2
		c0.5,0,0.8-0.4,0.8-0.7v-0.2C31,24.3,31,23.8,30,23.3z M26.8,25.1c-0.7-0.3-1.7-1.2-3.2-1.5c0.4-0.4,0.7-1.1,1-1.9
		c0.1-0.5,0.1-0.9,0.1-1.5c0-0.4,0.1-1.1,0-1.5c-0.3-1.3-1.2-1.6-2.1-1.6c-1,0-1.8,0.3-2.1,1.6c-0.1,0.4,0,1.1,0,1.5
		c0,0.6,0,1,0.2,1.5c0.3,0.8,0.6,1.5,1,1.9C20,24,19,24.8,18.4,25.1C17,25.8,17,26.5,17,26.5v0.3c0,0.5,0.5,1,1,1h9.2
		c0.6,0,1-0.5,1-1v-0.2C28.2,26.5,28.2,25.8,26.8,25.1z M14,24.3v0.2c0,0.4,0.3,0.7,0.8,0.7h1.2c0.2-0.2,0.5-0.4,0.8-0.5
		c0.7-0.3,1.7-1.2,3.2-1.5c-0.2-0.2-0.4-0.6-0.5-0.9c-0.1,0-0.3-0.1-0.4-0.1c0.1-0.1,0.2-0.2,0.2-0.3L19,21.3
		c-0.1-0.5-0.1-0.9-0.1-1.5c0-0.4-0.1-1.1,0-1.5c0.1-0.3,0.2-0.5,0.3-0.7c-0.3-0.2-0.6-0.2-1-0.2c-0.7,0-1.3,0.3-1.6,1.2
		c-0.1,0.3,0,0.8,0,1.1c0,0.4,0,0.7,0.1,1.1c0.2,0.6,0.5,1.1,0.7,1.4c-1.1,0.2-1.9,0.8-2.4,1.1C14,23.8,14,24.3,14,24.3z"/>
</g>
</svg>
