<?xml version="1.0" encoding="utf-8"?>
<!-- Generator: Adobe Illustrator 19.1.0, SVG Export Plug-In . SVG Version: 6.00 Build 0)  -->
<svg version="1.1" id="Layer_1" xmlns="http://www.w3.org/2000/svg" xmlns:xlink="http://www.w3.org/1999/xlink" x="0px" y="0px"
	 viewBox="7.5 7.5 30 30" style="enable-background:new 7.5 7.5 30 30;" xml:space="preserve">
<style type="text/css">
	.st0{fill:#50555E;}
	.st1{fill-rule:evenodd;clip-rule:evenodd;fill:#FFFFFF;}
	.st2{fill:#FFFFFF;}
</style>
<g>
	<path class="st0" d="M34.5,37.5h-24c-1.6,0-3-1.3-3-3v-24c0-1.6,1.3-3,3-3h24c1.6,0,3,1.3,3,3v24C37.5,36.2,36.2,37.5,34.5,37.5z"
		/>
	<path class="st1" d="M26.9,25.2c-0.7-0.4-1.8-1.2-3.3-1.5c0.4-0.5,0.7-1.2,1-2c0.2-0.5,0.1-0.9,0.1-1.5c0-0.4,0.1-1.1,0-1.5
		c-0.3-1.3-1.2-1.7-2.2-1.7c-1,0-1.9,0.4-2.2,1.7c-0.1,0.4,0,1.1,0,1.5c0,0.6,0,1,0.2,1.5c0.3,0.8,0.6,1.6,1,2
		c-1.5,0.3-2.6,1.2-3.3,1.5c-1.5,0.7-1.5,1.5-1.5,1.5V27c0,0.5,0.5,1,1.1,1h9.6c0.7,0,1.1-0.6,1.1-1.1v-0.2
		C28.4,26.7,28.3,25.9,26.9,25.2z"/>
</g>
<g>
	<path class="st2" d="M27.7,19.9v1.6h1.6V22h-1.6v1.7h-0.4V22h-1.6v-0.4h1.6v-1.6H27.7z"/>
</g>
</svg>
