<?xml version="1.0" encoding="utf-8"?>
<!-- Generator: Adobe Illustrator 19.1.0, SVG Export Plug-In . SVG Version: 6.00 Build 0)  -->
<svg version="1.1" id="Layer_1" xmlns="http://www.w3.org/2000/svg" xmlns:xlink="http://www.w3.org/1999/xlink" x="0px" y="0px"
	 viewBox="7.5 7.5 30 30" style="enable-background:new 7.5 7.5 30 30;" xml:space="preserve">
<style type="text/css">
	.st0{fill:#50555E;}
	.st1{fill:#FFFFFF;}
</style>
<g>
	<path class="st0" d="M34.5,37.5h-24c-1.6,0-3-1.3-3-3v-24c0-1.6,1.3-3,3-3h24c1.6,0,3,1.3,3,3v24C37.5,36.2,36.2,37.5,34.5,37.5z"
		/>
	<g>
		<path class="st1" d="M20.9,20.8l1.1-3.9c0-0.1,0-0.2-0.1-0.2L17.7,16c-0.1,0-0.1,0-0.1,0.1l0.9,1.3c-0.2,0.2-0.4,0.4-0.6,0.6
			c-1,1-1.7,2.4-1.8,3.7l2.4,0.1c0.1-0.8,0.5-1.5,1.1-2.1c0.1-0.1,0.2-0.2,0.3-0.2l0.9,1.4C20.8,20.9,20.9,20.9,20.9,20.8z"/>
		<path class="st1" d="M25.3,19.7c0.6,0.6,1,1.4,1.1,2.3l2.5,0.1c-0.1-1.5-0.7-3-1.9-4.1c-1.1-1.1-2.4-1.7-3.9-1.9l-0.1,2.4
			C23.9,18.7,24.7,19.1,25.3,19.7z"/>
		<path class="st1" d="M28.8,23.9l-2.5-0.1c-0.2,0.6-0.5,1.2-1,1.7c-0.5,0.5-1.2,0.9-1.8,1.1L23.4,29c1.3-0.2,2.6-0.8,3.7-1.8
			C28,26.2,28.6,25.1,28.8,23.9z"/>
		<path class="st1" d="M19.6,25.4c-0.5-0.5-0.9-1.2-1.1-1.9l-2.5-0.1c0.2,1.4,0.8,2.7,1.8,3.7c1,1,2.4,1.7,3.7,1.8l0.1-2.4
			C20.9,26.4,20.2,26,19.6,25.4z"/>
	</g>
</g>
</svg>
