<?xml version="1.0" encoding="UTF-8" standalone="no"?>
<svg width="21px" height="21px" viewBox="0 0 21 21" version="1.1" xmlns="http://www.w3.org/2000/svg" xmlns:xlink="http://www.w3.org/1999/xlink" xmlns:sketch="http://www.bohemiancoding.com/sketch/ns">
    <!-- Generator: Sketch 3.2.2 (9983) - http://www.bohemiancoding.com/sketch -->
    <title>profile copy 2</title>
    <desc>Created with Sketch.</desc>
    <defs></defs>
    <g id="Page-1" stroke="none" stroke-width="1" fill="none" fill-rule="evenodd" sketch:type="MSPage">
        <g id="profile-copy" sketch:type="MSLayerGroup">
            <g id="Group" sketch:type="MSShapeGroup">
                <circle id="Oval" fill="#C5C4C4" cx="10.5" cy="10.5" r="9.8"></circle>
                <path d="M16.2,16.8 C15.3,16.3 13.9,15.2 11.9,14.9 C12.4,14.3 12.8,13.4 13.2,12.3 C13.4,11.6 13.4,11.1 13.4,10.4 C13.4,9.8 13.5,8.9 13.4,8.4 C13,6.7 11.9,6.2 10.5,6.2 C9.2,6.2 8.1,6.7 7.6,8.4 C7.5,8.9 7.6,9.8 7.6,10.4 C7.6,11.2 7.6,11.7 7.8,12.3 C8.2,13.4 8.6,14.3 9.1,14.9 C7.1,15.3 5.8,16.4 4.9,16.8 C3,17.6 3,18.6 3,18.6 L3,19 C3,19.6 3.7,20.3 4.4,20.3 L16.7,20.3 C17.6,20.3 18.1,19.6 18.1,18.9 L18.1,18.6 C18.1,18.6 18,17.6 16.2,16.8 L16.2,16.8 Z" id="Shape" opacity="0.75" fill="#FFFFFF"></path>
            </g>
        </g>
    </g>
</svg>