<?xml version="1.0" encoding="UTF-8" standalone="no"?>
<svg width="15px" height="18px" viewBox="0 0 15 18" version="1.1" xmlns="http://www.w3.org/2000/svg" xmlns:xlink="http://www.w3.org/1999/xlink" xmlns:sketch="http://www.bohemiancoding.com/sketch/ns">
    <!-- Generator: Sketch 3.2.2 (9983) - http://www.bohemiancoding.com/sketch -->
    <title>sign-out</title>
    <desc>Created with Sketch.</desc>
    <defs></defs>
    <g id="Page-1" stroke="none" stroke-width="1" fill="none" fill-rule="evenodd" sketch:type="MSPage">
        <g id="sign-out" sketch:type="MSLayerGroup" fill="#51555E">
            <path d="M5.3,14.4 L10,9.7 L5.3,5 L5.3,8 L1.4,8 L1.4,11.9 L5.3,11.9 L5.3,14.4 L5.3,14.4 Z M1.4,0.2 L0.1,0.2 L0.1,6.7 L1.4,6.7 L2.7,6.7 L2.7,2.8 L11.8,2.8 L11.8,17.1 L13.1,17.1 L14.4,17.1 L14.4,2.8 L14.4,1.5 L14.4,0.2 L1.4,0.2 L1.4,0.2 Z M0.1,13.2 L0.1,17.1 L1.4,17.1 L2.7,17.1 L2.7,13.2 L1.4,13.2 L0.1,13.2 L0.1,13.2 Z" id="Shape" sketch:type="MSShapeGroup"></path>
        </g>
    </g>
</svg>